<svg id="Ebene_1" data-name="Ebene 1" xmlns="http://www.w3.org/2000/svg" viewBox="0 0 222.59 56.69"><defs><style>.cls-1{fill:#33b0d0;}.cls-2{fill:#99d7e7;}.cls-3{fill:#66c4dc;}.cls-4{fill:#009cc4;}</style></defs><title>CISPA_Logo_EN_RZ_RGB</title><path d="M85.48,4.87a9.37,9.37,0,1,0,0,18.73,11.29,11.29,0,0,0,7.65-3.3l3.18,3.54A16.09,16.09,0,0,1,85.2,28.68,14.32,14.32,0,0,1,70.49,14.3C70.49,6.24,77,.08,85.4.08A15.65,15.65,0,0,1,96.27,4.59L93.13,8.54A10.56,10.56,0,0,0,85.48,4.87Z" transform="translate(0)"/><path d="M114.2.24v28.2h-5.4V.24Z" transform="translate(0)"/><path d="M138.45,4.91c-2.54,0-4.19.93-4.19,2.66,0,5.72,15.14,2.62,15.1,12.73,0,5.28-4.59,8.34-10.79,8.34a18.35,18.35,0,0,1-11.92-4.51l2.25-4.56a15.86,15.86,0,0,0,9.75,4.15c3,0,4.83-1.12,4.83-3.1,0-5.88-15.14-2.54-15.14-12.56,0-4.92,4.23-8.06,10.55-8.06a19.2,19.2,0,0,1,10.19,3l-2.17,4.67A18.13,18.13,0,0,0,138.45,4.91Z" transform="translate(0)"/><path d="M185.25,10c0,6.44-4.07,10.19-11.16,10.19h-6.16v8.3h-5.4V.24h11.56C181.18.24,185.25,3.75,185.25,10Zm-5.11.16c0-3.46-2.3-5.16-6.33-5.16h-5.88V15.39h5.88C177.84,15.39,180.14,13.65,180.14,10.11Z" transform="translate(0)"/><path d="M214.29,22.47H200.52l-2.5,6h-5.6L204.79.24h5.6l12.2,28.2h-5.8Zm-1.93-4.63L207.45,6l-5,11.84Z" transform="translate(0)"/><path d="M76,38.86v6.56h-.68v-3h-4.1v3h-.7V38.86h.7v2.92h4.1V38.86Z" transform="translate(0)"/><path d="M84.27,44.82v.6H79.63V38.86h4.5v.6h-3.8v2.33h3.39v.59H80.33v2.44Z" transform="translate(0)"/><path d="M87.42,38.86h.7v6h3.67v.6H87.42Z" transform="translate(0)"/><path d="M101.27,38.86v6.56h-.66V40.17L98,44.58H97.7L95.13,40.2v5.22h-.67V38.86H95l2.84,4.86,2.82-4.86Z" transform="translate(0)"/><path d="M110.41,38.86v6.56h-.68v-3h-4.1v3h-.7V38.86h.7v2.92h4.1V38.86Z" transform="translate(0)"/><path d="M113.49,42.14a3.44,3.44,0,1,1,3.45,3.33A3.3,3.3,0,0,1,113.49,42.14Zm6.19,0a2.76,2.76,0,1,0-2.74,2.71A2.65,2.65,0,0,0,119.68,42.14Z" transform="translate(0)"/><path d="M123.45,38.86h.7v6h3.67v.6h-4.37Z" transform="translate(0)"/><path d="M131.16,39.46h-2.3v-.6h5.3v.6h-2.31v6h-.69Z" transform="translate(0)"/><path d="M141.52,44.82v.6h-5.38v-.48l4.35-5.48h-4.28v-.6h5.19v.48l-4.33,5.48Z" transform="translate(0)"/><path d="M147.81,42.14a3.29,3.29,0,0,1,3.43-3.34,3.16,3.16,0,0,1,2.4,1l-.44.44a2.61,2.61,0,0,0-1.94-.78,2.72,2.72,0,1,0,0,5.43,2.57,2.57,0,0,0,1.94-.78l.44.44a3.21,3.21,0,0,1-2.41,1A3.28,3.28,0,0,1,147.81,42.14Z" transform="translate(0)"/><path d="M161.28,44.82v.6h-4.63V38.86h4.49v.6h-3.8v2.33h3.39v.59h-3.39v2.44Z" transform="translate(0)"/><path d="M169.91,38.86v6.56h-.57l-4.21-5.32v5.32h-.69V38.86H165l4.22,5.32V38.86Z" transform="translate(0)"/><path d="M174.85,39.46h-2.31v-.6h5.3v.6h-2.3v6h-.69Z" transform="translate(0)"/><path d="M185.11,44.82v.6h-4.64V38.86H185v.6h-3.8v2.33h3.39v.59h-3.39v2.44Z" transform="translate(0)"/><path d="M192.74,45.42l-1.5-2.11a4.28,4.28,0,0,1-.52,0H189v2.08h-.7V38.86h2.46c1.66,0,2.68.84,2.68,2.25a2,2,0,0,1-1.5,2.06l1.6,2.25Zm0-4.31c0-1-.69-1.65-2-1.65H189v3.29h1.74C192,42.75,192.7,42.14,192.7,41.11Z" transform="translate(0)"/><path d="M201.23,39.46V42h3.39v.6h-3.39v2.79h-.69V38.86H205v.6Z" transform="translate(0)"/><path d="M207.33,42.14a3.44,3.44,0,1,1,3.44,3.33A3.3,3.3,0,0,1,207.33,42.14Zm6.19,0a2.76,2.76,0,1,0-2.75,2.71A2.66,2.66,0,0,0,213.52,42.14Z" transform="translate(0)"/><path d="M221.77,45.42l-1.5-2.11a4.45,4.45,0,0,1-.53,0H218v2.08h-.69V38.86h2.45c1.67,0,2.68.84,2.68,2.25a2,2,0,0,1-1.5,2.06l1.6,2.25Zm0-4.31c0-1-.69-1.65-2-1.65H218v3.29h1.75C221,42.75,221.73,42.14,221.73,41.11Z" transform="translate(0)"/><path d="M70.49,50.09h.7v6.55h-.7Z" transform="translate(0)"/><path d="M80.57,50.09v6.55H80l-4.21-5.31v5.31H75.1V50.09h.57l4.22,5.31V50.09Z" transform="translate(0)"/><path d="M85.18,50.69v2.57h3.39v.6H85.18v2.78h-.69V50.09H89v.6Z" transform="translate(0)"/><path d="M91.53,53.36A3.44,3.44,0,1,1,95,56.69,3.29,3.29,0,0,1,91.53,53.36Zm6.18,0A2.75,2.75,0,1,0,95,56.08,2.65,2.65,0,0,0,97.71,53.36Z" transform="translate(0)"/><path d="M106.21,56.64l-1.49-2.11a4.45,4.45,0,0,1-.53,0h-1.76v2.08h-.69V50.09h2.45c1.67,0,2.68.84,2.68,2.25a2,2,0,0,1-1.5,2l1.6,2.25Zm0-4.3c0-1.05-.69-1.65-2-1.65h-1.74V54h1.74C105.48,54,106.17,53.36,106.17,52.34Z" transform="translate(0)"/><path d="M117.09,50.09v6.55h-.67V51.4l-2.57,4.4h-.33L111,51.43v5.21h-.66V50.09h.57l2.84,4.85,2.82-4.85Z" transform="translate(0)"/><path d="M125.11,54.89h-3.65l-.78,1.75H120l3-6.55h.68l3,6.55h-.72Zm-.25-.56-1.57-3.52-1.57,3.52Z" transform="translate(0)"/><path d="M130.44,50.69h-2.3v-.6h5.29v.6h-2.3v6h-.69Z" transform="translate(0)"/><path d="M136.32,50.09H137v6.55h-.69Z" transform="translate(0)"/><path d="M140.35,53.36a3.44,3.44,0,1,1,3.44,3.33A3.29,3.29,0,0,1,140.35,53.36Zm6.18,0a2.75,2.75,0,1,0-2.74,2.72A2.65,2.65,0,0,0,146.53,53.36Z" transform="translate(0)"/><path d="M156,50.09v6.55h-.57l-4.21-5.31v5.31h-.69V50.09h.57l4.22,5.31V50.09Z" transform="translate(0)"/><path d="M163.56,55.84l.27-.53a3.21,3.21,0,0,0,2.16.79c1.23,0,1.76-.51,1.76-1.16,0-1.79-4-.69-4-3.11,0-1,.75-1.79,2.41-1.79a3.64,3.64,0,0,1,2,.58l-.23.55a3.35,3.35,0,0,0-1.8-.55c-1.2,0-1.73.54-1.73,1.19,0,1.8,4,.71,4,3.1,0,1-.77,1.78-2.44,1.78A3.53,3.53,0,0,1,163.56,55.84Z" transform="translate(0)"/><path d="M176.35,56v.6h-4.63V50.09h4.49v.6h-3.8V53h3.39v.59h-3.39V56Z" transform="translate(0)"/><path d="M179.15,53.36A3.28,3.28,0,0,1,182.58,50,3.15,3.15,0,0,1,185,51l-.44.44a2.6,2.6,0,0,0-1.93-.78,2.72,2.72,0,1,0,0,5.43,2.57,2.57,0,0,0,1.93-.79l.44.44a3.16,3.16,0,0,1-2.4,1A3.28,3.28,0,0,1,179.15,53.36Z" transform="translate(0)"/><path d="M188.16,53.84V50.09h.69v3.72c0,1.55.73,2.27,2,2.27s2-.72,2-2.27V50.09h.68v3.75c0,1.88-1,2.85-2.69,2.85S188.16,55.72,188.16,53.84Z" transform="translate(0)"/><path d="M201.88,56.64l-1.5-2.11a4.41,4.41,0,0,1-.52,0H198.1v2.08h-.69V50.09h2.45c1.66,0,2.67.84,2.67,2.25a2,2,0,0,1-1.49,2l1.6,2.25Zm0-4.3c0-1.05-.69-1.65-2-1.65H198.1V54h1.74C201.15,54,201.84,53.36,201.84,52.34Z" transform="translate(0)"/><path d="M206,50.09h.69v6.55H206Z" transform="translate(0)"/><path d="M211.84,50.69h-2.3v-.6h5.29v.6h-2.3v6h-.69Z" transform="translate(0)"/><path d="M219.91,54.37v2.27h-.68V54.37l-2.62-4.28h.74l2.25,3.68,2.24-3.68h.69Z" transform="translate(0)"/><path d="M60.46.24v56.4h-.79V.24Z" transform="translate(0)"/><path class="cls-1" d="M47.6,8l-6.33,6.67c.48.46.94.94,1.37,1.44l7-6A27.45,27.45,0,0,0,47.6,8Z" transform="translate(0)"/><path class="cls-2" d="M44.17,5.2l-2.76,4c.51.35,1,.71,1.47,1.1l3.06-3.78C45.37,6.06,44.78,5.62,44.17,5.2Z" transform="translate(0)"/><path class="cls-3" d="M39.67,2.68,37,8.66a20.2,20.2,0,0,1,2,1L42.3,4A28.25,28.25,0,0,0,39.67,2.68Z" transform="translate(0)"/><path class="cls-3" d="M34.78,1l-2.15,9c.65.16,1.29.35,1.91.57l3.07-8.68A27.11,27.11,0,0,0,34.78,1Z" transform="translate(0)"/><path class="cls-4" d="M30.41.34,29.81,8c.54,0,1.07.11,1.59.19L32.61.59C31.89.47,31.15.39,30.41.34Z" transform="translate(0)"/><path class="cls-3" d="M25.15,5.31a23.67,23.67,0,0,1,3.05-.2V.24a27.85,27.85,0,0,0-3.68.25Z" transform="translate(0)"/><path class="cls-4" d="M22.8,10.22c.48-.14,1-.27,1.45-.37l-1.91-9c-.73.15-1.45.33-2.15.54Z" transform="translate(0)"/><path class="cls-3" d="M18.15,7.38c.55-.27,1.11-.5,1.69-.72L18.09,2.11c-.69.27-1.37.56-2,.87Z" transform="translate(0)"/><path class="cls-2" d="M16.24,13.67A19.77,19.77,0,0,1,18.7,12L14.1,4a27.67,27.67,0,0,0-3.64,2.51Z" transform="translate(0)"/><path class="cls-3" d="M6.76,10.13l3.7,3.16a23.42,23.42,0,0,1,1.68-1.77L8.79,8A29.32,29.32,0,0,0,6.76,10.13Z" transform="translate(0)"/><path class="cls-1" d="M4.16,13.71,12,18.52a14.87,14.87,0,0,1,.83-1.24L5.39,11.87C5,12.46,4.54,13.08,4.16,13.71Z" transform="translate(0)"/><path class="cls-3" d="M1.38,19.73l6.22,2a21.16,21.16,0,0,1,1.3-3.14l-5.82-3A27.74,27.74,0,0,0,1.38,19.73Z" transform="translate(0)"/><path class="cls-1" d="M5.15,24.79q.15-.91.36-1.8L.78,21.86C.61,22.57.46,23.29.35,24Z" transform="translate(0)"/><path class="cls-2" d="M0,28.44H9.19c0-.5,0-1,.08-1.49L.1,26.23C0,27,0,27.69,0,28.44Z" transform="translate(0)"/><path class="cls-4" d="M.1,30.65A25.87,25.87,0,0,0,.62,34.3l4.75-1a24.67,24.67,0,0,1-.43-3Z" transform="translate(0)"/><path class="cls-4" d="M2.14,39.23l8.5-3.52A19.71,19.71,0,0,1,10,33.84L1.16,36.45A28.55,28.55,0,0,0,2.14,39.23Z" transform="translate(0)"/><path class="cls-3" d="M3.08,41.24a29.11,29.11,0,0,0,1.47,2.55l4.08-2.64c-.44-.69-.85-1.39-1.22-2.12Z" transform="translate(0)"/><path class="cls-3" d="M7.25,47.31,13,42.15c-.36-.4-.7-.81-1-1.24L5.83,45.6C6.28,46.19,6.75,46.76,7.25,47.31Z" transform="translate(0)"/><path class="cls-4" d="M8.79,48.89c.72.67,1.47,1.32,2.25,1.92l5.6-7.31a16.85,16.85,0,0,1-1.51-1.29Z" transform="translate(0)"/><path class="cls-3" d="M12.84,52.08a28.12,28.12,0,0,0,3.89,2.12l2.66-6a20.4,20.4,0,0,1-3-1.62Z" transform="translate(0)"/><path class="cls-2" d="M23.06,56.16c.72.13,1.45.25,2.19.32l.51-4.84c-.61-.06-1.22-.15-1.81-.26Z" transform="translate(0)"/><path class="cls-1" d="M28.2,56.64a28,28,0,0,0,3.68-.25l-1.2-9.12a20.39,20.39,0,0,1-2.48.18c-.17,0-.33,0-.5,0l-.24,9.2Z" transform="translate(0)"/><path class="cls-2" d="M34.35,49.2c-.54.16-1.09.31-1.65.42L34.06,56c.73-.15,1.44-.34,2.15-.54Z" transform="translate(0)"/><path class="cls-1" d="M36.82,45.36a18.62,18.62,0,0,1-1.82.81l3.3,8.59a25.16,25.16,0,0,0,2.7-1.2Z" transform="translate(0)"/><path class="cls-1" d="M41.1,44.38a20.91,20.91,0,0,1-2.19,1.53l4,6.57a27.69,27.69,0,0,0,3-2.13Z" transform="translate(0)"/><path class="cls-4" d="M42.64,40.78a18.51,18.51,0,0,1-1.37,1.43l6.33,6.68a27.45,27.45,0,0,0,2-2.14Z" transform="translate(0)"/><path class="cls-1" d="M21.86,46.33,18.79,55l.25.09c.61.21,1.22.41,1.85.58h0l2.39-8.89C22.8,46.66,22.33,46.49,21.86,46.33Z" transform="translate(0)"/></svg>